<?xml version="1.0" standalone="no"?>
<!DOCTYPE svg PUBLIC "-//W3C//DTD SVG 20010904//EN"
 "http://www.w3.org/TR/2001/REC-SVG-20010904/DTD/svg10.dtd">
<svg version="1.0" xmlns="http://www.w3.org/2000/svg"
 width="200.000000pt" height="200.000000pt" viewBox="0 0 200.000000 200.000000"
 preserveAspectRatio="xMidYMid meet">

<g transform="translate(0.000000,200.000000) scale(0.100000,-0.100000)"
fill="#000000" stroke="none">
<path d="M249 1986 c-102 -27 -171 -87 -218 -186 l-26 -55 0 -745 0 -745 26
-56 c36 -76 86 -129 156 -165 l58 -29 755 0 c753 0 755 0 802 22 66 30 133 96
165 162 l28 56 0 755 0 755 -28 57 c-33 68 -90 121 -166 157 l-56 26 -725 2
c-554 1 -736 -1 -771 -11z m1091 -465 c78 -30 134 -81 172 -159 30 -60 33 -75
33 -152 0 -67 -5 -95 -23 -135 -31 -68 -92 -128 -166 -162 -58 -26 -70 -28
-223 -31 l-163 -4 0 70 0 70 143 4 c123 3 148 6 189 27 27 12 58 37 70 54 26
37 36 128 19 180 -15 45 -68 93 -118 106 -23 7 -165 11 -355 11 l-318 0 0 -60
0 -60 305 0 306 0 24 -25 c30 -29 32 -64 6 -96 -19 -23 -24 -24 -200 -27
l-181 -3 0 -173 c0 -160 -2 -175 -21 -200 -27 -34 -71 -35 -104 -1 -25 24 -25
27 -25 200 l0 175 -55 0 -55 0 0 -194 c0 -114 4 -206 11 -223 42 -111 210
-150 298 -70 31 29 61 94 61 135 l0 32 76 0 76 0 -6 -47 c-19 -133 -76 -220
-179 -272 -60 -31 -76 -35 -145 -34 -143 1 -253 68 -310 191 l-27 57 -3 418
-3 417 420 0 c391 0 424 -1 471 -19z"/>
</g>
</svg>
